<?xml version="1.0" standalone="no"?>
<!DOCTYPE svg PUBLIC "-//W3C//DTD SVG 20010904//EN"
 "http://www.w3.org/TR/2001/REC-SVG-20010904/DTD/svg10.dtd">
<svg version="1.0" xmlns="http://www.w3.org/2000/svg"
 width="32.000000pt" height="32.000000pt" viewBox="0 0 32.000000 32.000000"
 preserveAspectRatio="xMidYMid meet">

<g transform="translate(0.000000,32.000000) scale(0.100000,-0.100000)"
fill="#000000" stroke="none">
<path d="M0 160 l0 -160 160 0 160 0 0 160 0 160 -160 0 -160 0 0 -160z m170
70 c0 -5 -4 -10 -10 -10 -5 0 -10 5 -10 10 0 6 5 10 10 10 6 0 10 -4 10 -10z
m60 -60 c0 -17 -13 -42 -34 -66 l-34 -38 -36 36 c-25 25 -36 45 -36 66 l0 29
70 0 c70 0 70 0 70 -27z"/>
<path d="M110 157 c0 -30 10 -40 27 -26 9 8 10 15 3 24 -7 9 -2 12 20 12 22 0
27 -3 20 -12 -7 -9 -6 -16 3 -24 17 -14 27 -4 27 26 0 21 -4 23 -50 23 -46 0
-50 -2 -50 -23z"/>
<path d="M144 119 c-10 -17 13 -36 27 -22 12 12 4 33 -11 33 -5 0 -12 -5 -16
-11z"/>
</g>
</svg>
